<svg width="9" height="8" viewBox="0 0 9 8" fill="none" xmlns="http://www.w3.org/2000/svg">
<path fill-rule="evenodd" clip-rule="evenodd" d="M2.95204 7.09496L7.01981 2.3606C7.24088 2.10529 7.31949 1.81012 7.24579 1.50958C7.18193 1.23636 6.99524 0.976572 6.71521 0.779493L6.03234 0.291277C5.4379 -0.134234 4.70098 -0.0894431 4.27848 0.398774L3.8216 0.932229C3.76264 0.998967 3.77738 1.09751 3.85107 1.15125C3.85107 1.15125 5.00557 1.98436 5.03014 2.00227C5.10874 2.06946 5.16769 2.15904 5.18243 2.26654C5.207 2.47705 5.04487 2.67413 4.80415 2.70101C4.69115 2.71444 4.58307 2.68309 4.50447 2.62486L3.29102 1.75593C3.23206 1.71606 3.14363 1.72457 3.09451 1.77832L0.210712 5.13761C0.0240271 5.34813 -0.0398389 5.62135 0.0240271 5.88561L0.392485 7.32339C0.412136 7.39953 0.485827 7.45328 0.574257 7.45328L2.19547 7.43537C2.49024 7.43089 2.76535 7.30995 2.95204 7.09496ZM5.22195 6.64746H7.86551C8.12343 6.64746 8.3332 6.83872 8.3332 7.07387C8.3332 7.30946 8.12343 7.50027 7.86551 7.50027H5.22195C4.96403 7.50027 4.75425 7.30946 4.75425 7.07387C4.75425 6.83872 4.96403 6.64746 5.22195 6.64746Z" fill="#5B93FF"/>
</svg>
