<svg width="12" height="10" viewBox="0 0 12 10" fill="none" xmlns="http://www.w3.org/2000/svg">
<path fill-rule="evenodd" clip-rule="evenodd" d="M7.45353 2.18424C7.61563 2.18424 7.75057 2.31883 7.75057 2.49007V2.64841C7.75057 2.81549 7.61563 2.95424 7.45353 2.95424H0.548007C0.38551 2.95424 0.250568 2.81549 0.250568 2.64841V2.49007C0.250568 2.31883 0.38551 2.18424 0.548007 2.18424H1.76289C2.00967 2.18424 2.22444 2.00883 2.27996 1.76133L2.34358 1.47717C2.44246 1.09009 2.76786 0.833008 3.14026 0.833008H4.86087C5.22923 0.833008 5.55827 1.09009 5.6535 1.45675L5.72158 1.76092C5.77669 2.00883 5.99146 2.18424 6.23865 2.18424H7.45353ZM6.83624 7.97175C6.96308 6.78968 7.18514 3.98138 7.18514 3.95304C7.19325 3.86721 7.16529 3.78596 7.10977 3.72055C7.0502 3.6593 6.97483 3.62305 6.89176 3.62305H1.11236C1.02889 3.62305 0.94946 3.6593 0.894349 3.72055C0.838427 3.78596 0.810871 3.86721 0.814924 3.95304C0.815668 3.95825 0.823636 4.05717 0.836958 4.22255C0.896137 4.95723 1.06097 7.00348 1.16747 7.97175C1.24285 8.68508 1.71089 9.13341 2.38884 9.14966C2.91199 9.16174 3.45095 9.16591 4.00206 9.16591C4.52116 9.16591 5.04836 9.16174 5.58773 9.14966C6.28918 9.13757 6.75681 8.69716 6.83624 7.97175Z" fill="#E71D36"/>
</svg>
